<?xml version="1.0" encoding="UTF-8" standalone="no"?>
<svg
   id="Layer_1"
   data-name="Layer 1"
   viewBox="0 0 50.000001 49.999999"
   version="1.1"
   sodipodi:docname="blender-icon.svg"
   width="50"
   height="50"
   inkscape:version="1.2 (1:1.2.1+202207142221+cd75a1ee6d)"
   xmlns:inkscape="http://www.inkscape.org/namespaces/inkscape"
   xmlns:sodipodi="http://sodipodi.sourceforge.net/DTD/sodipodi-0.dtd"
   xmlns="http://www.w3.org/2000/svg"
   xmlns:svg="http://www.w3.org/2000/svg"
   xmlns:rdf="http://www.w3.org/1999/02/22-rdf-syntax-ns#"
   xmlns:cc="http://creativecommons.org/ns#"
   xmlns:dc="http://purl.org/dc/elements/1.1/">
  <sodipodi:namedview
     id="namedview15"
     pagecolor="#ffffff"
     bordercolor="#000000"
     borderopacity="0.25"
     inkscape:showpageshadow="2"
     inkscape:pageopacity="0.0"
     inkscape:pagecheckerboard="0"
     inkscape:deskcolor="#d1d1d1"
     showgrid="false"
     inkscape:document-units="px"
     inkscape:zoom="9.3009505"
     inkscape:cx="30.642029"
     inkscape:cy="19.89044"
     inkscape:current-layer="Layer_1" />
  <defs
     id="defs4">
    <style
       id="style2">.cls-1{fill:#fff;}.cls-2{fill:#265787;}.cls-3{fill:#ea7600;}</style>
  </defs>
  <title
     id="title6">blender</title>
  <g
     id="g1220"
     transform="matrix(1.0114956,0,0,1,-0.33822977,-3.4268997)">
    <path
       class="cls-1"
       d="m 19.766639,30.636313 c 0.179993,-3.213159 1.753441,-6.043588 4.126967,-8.050205 2.328032,-1.970027 5.461086,-3.174591 8.878963,-3.174591 3.417876,0 6.547963,1.201597 8.877973,3.179535 2.373526,2.006617 3.944997,4.837047 4.126967,8.047239 0.179992,3.301178 -1.147203,6.367971 -3.475236,8.640622 -2.373525,2.312209 -5.748877,3.764015 -9.529704,3.764015 -3.780828,0 -7.163102,-1.451806 -9.534649,-3.764015 -2.332978,-2.277596 -3.652262,-5.344388 -3.471281,-8.6426 z"
       id="path8"
       style="stroke-width:0.0988972" />
    <path
       class="cls-2"
       d="m 26.099996,30.925093 c 0.09197,-1.648612 0.899961,-3.101407 2.117382,-4.130923 a 7.1848587,7.1848587 0 0 1 9.111371,0 c 1.216431,1.029516 2.024418,2.482311 2.117382,4.128944 0.09197,1.694105 -0.593382,3.263598 -1.780144,4.433548 -1.217421,1.186762 -2.950094,1.931456 -4.889462,1.931456 -1.939368,0 -3.675009,-0.744694 -4.89243,-1.931456 -1.19863,-1.165995 -1.877063,-2.739443 -1.784099,-4.431569 z"
       id="path10"
       style="stroke-width:0.0988972" />
    <path
       class="cls-3"
       d="m 15.473525,34.260884 c 0.01088,0.644808 0.216585,1.898821 0.525143,2.8779 a 15.188583,15.188583 0 0 0 3.279421,5.678659 16.944992,16.944992 0 0 0 5.736019,4.121033 18.761728,18.761728 0 0 0 15.07683,-0.03066 17.074547,17.074547 0 0 0 5.736019,-4.141802 15.308248,15.308248 0 0 0 3.278432,-5.689537 14.378618,14.378618 0 0 0 0.617117,-3.175579 14.524986,14.524986 0 0 0 -0.0989,-3.154811 14.685198,14.685198 0 0 0 -2.091669,-5.723163 15.970858,15.970858 0 0 0 -3.815441,-4.206084 v 0 L 28.27276,8.9630611 c -0.01385,-0.010876 -0.02571,-0.021761 -0.04055,-0.031643 -1.012703,-0.7773296 -2.716697,-0.7743621 -3.830276,0 -1.113579,0.7743632 -1.255001,2.0906809 -0.253176,2.9135029 v 0 l 6.439177,5.241535 -19.627077,0.02077 h -0.0267 c -1.6258649,0.0059 -3.1825014,1.070064 -3.4940271,2.418028 -0.3174585,1.370712 0.7842526,2.508026 2.4724219,2.51396 v 0.0059 l 9.9490272,-0.0188 -17.7569359,13.619091 -0.068236,0.05044 c -1.67432436,1.286649 -2.21627916,3.418865 -1.16104969,4.768807 1.07006469,1.3717 3.34667039,1.374667 5.04374109,0.0079 L 15.61099,32.543013 a 15.047161,15.047161 0 0 0 -0.137467,1.717839 z m 24.896302,3.580067 c -1.995738,2.03332 -4.790565,3.186459 -7.812853,3.192393 -3.022289,0.0059 -5.824038,-1.137315 -7.819778,-3.164702 a 9.2883955,9.2883955 0 0 1 -2.134194,-3.340736 8.6722678,8.6722678 0 0 1 -0.494485,-3.732368 8.8127014,8.8127014 0 0 1 1.071054,-3.517763 9.6918947,9.6918947 0 0 1 2.373524,-2.823505 c 1.940358,-1.582351 4.410801,-2.437809 6.994978,-2.440776 2.584175,-0.003 5.055609,0.84458 6.997944,2.420996 a 9.6424463,9.6424463 0 0 1 2.373525,2.814605 8.8206131,8.8206131 0 0 1 1.07402,3.512817 8.6841355,8.6841355 0 0 1 -0.494484,3.730391 9.3289432,9.3289432 0 0 1 -2.129251,3.348648 z"
       id="path12"
       style="stroke-width:0.0988972" />
  </g>
  <metadata
     id="metadata1161">
    <rdf:RDF>
      <cc:Work
         rdf:about="">
        <dc:title>blender</dc:title>
      </cc:Work>
    </rdf:RDF>
  </metadata>
</svg>
