<?xml version="1.0" standalone="no"?><!-- Generator: Gravit.io --><svg xmlns="http://www.w3.org/2000/svg" xmlns:xlink="http://www.w3.org/1999/xlink" style="isolation:isolate" viewBox="0 0 1024 1024" width="1024" height="1024"><defs><clipPath id="_clipPath_ROoxDOx8mz2DAZqe4XUhwz6Wmzy1uWhq"><rect width="1024" height="1024"/></clipPath></defs><g clip-path="url(#_clipPath_ROoxDOx8mz2DAZqe4XUhwz6Wmzy1uWhq)"><path d=" M 1.864 -14.431 L 1030.005 -14.431 L 1030.005 1024.594 L 1.864 1024.594 L 1.864 -14.431 Z  M 851.423 48.704 L 930.793 48.704 C 947.718 48.704 961.459 62.445 961.459 79.37 C 961.459 96.295 947.718 110.036 930.793 110.036 L 851.423 110.036 C 834.498 110.036 820.757 96.295 820.757 79.37 C 820.757 62.445 834.498 48.704 851.423 48.704 Z  M 95.605 48.704 L 174.975 48.704 C 191.899 48.704 205.64 62.445 205.64 79.37 C 205.64 96.295 191.899 110.036 174.975 110.036 L 95.605 110.036 C 78.68 110.036 64.939 96.295 64.939 79.37 C 64.939 62.445 78.68 48.704 95.605 48.704 Z  M 463.593 73.958 C 463.593 49.069 483.8 28.862 508.689 28.862 C 533.579 28.862 553.786 49.069 553.786 73.958 C 553.786 98.848 533.579 119.055 508.689 119.055 C 483.8 119.055 463.593 98.848 463.593 73.958 Z " fill-rule="evenodd" fill="rgb(87,156,59)"/><path d=" M 7.215 485.239 C 7.215 322.96 138.966 191.209 301.245 191.209 C 463.524 191.209 595.275 322.96 595.275 485.239 C 595.275 647.518 463.524 779.268 301.245 779.268 C 138.966 779.268 7.215 647.518 7.215 485.239 Z  M 82.978 485.239 C 82.978 364.774 180.78 266.972 301.245 266.972 C 421.71 266.972 519.512 364.774 519.512 485.239 C 519.512 605.704 421.71 703.506 301.245 703.506 C 180.78 703.506 82.978 605.704 82.978 485.239 Z " fill-rule="evenodd" fill="rgb(255,255,255)"/><rect x="539.355" y="328.303" width="465.396" height="86.585" transform="matrix(1,0,0,1,0,0)" fill="rgb(255,255,255)"/><rect x="748.603" y="393.242" width="84.782" height="622.332" transform="matrix(1,0,0,1,0,0)" fill="rgb(255,255,255)"/></g></svg>